<svg width="291" height="40" viewBox="0 0 291 40" fill="none" xmlns="http://www.w3.org/2000/svg">
<path d="M11.25 19V39H45V8L23.0114 28L11.25 19Z" fill="#3D4637"/>
<path d="M0 39H6.13636V8L23.0114 21L45 0H35.7955L23.0114 12L6.13636 0H0V39Z" fill="#3D4637"/>
<path d="M253 20C253 8.21622 260.964 0 272 0C283.036 0 291 8.21622 291 20C291 31.7838 283.036 40 272 40C260.964 40 253 31.7838 253 20ZM283.719 20C283.719 11.5676 278.883 6.10811 272 6.10811C265.117 6.10811 260.281 11.5676 260.281 20C260.281 28.4324 265.117 33.8919 272 33.8919C278.883 33.8919 283.719 28.4324 283.719 20Z" fill="#3D4637"/>
<path d="M110 20C110 8.21622 117.964 0 129 0C140.036 0 148 8.21622 148 20C148 31.7838 140.036 40 129 40C117.964 40 110 31.7838 110 20ZM140.719 20C140.719 11.5676 135.883 6.10811 129 6.10811C122.117 6.10811 117.281 11.5676 117.281 20C117.281 28.4324 122.117 33.8919 129 33.8919C135.883 33.8919 140.719 28.4324 140.719 20Z" fill="#3D4637"/>
<path d="M252 8H239V40H230.92V8H218V0H252V8Z" fill="#3D4637"/>
<path d="M198.607 0H206.393L221 40H214.073L210.743 30.8635H194.096L190.82 40H184L198.607 0ZM202.366 7.91086L196.351 24.624H208.488L202.366 7.91086Z" fill="#3D4637"/>
<path d="M171.903 40H164.211L149 0H156.862L168.142 31.0864L179.48 0H187L171.903 40Z" fill="#3D4637"/>
<path d="M87 32.8421H82L72 13.3421V39H65V0H74.5599L84.5 22.5789L94.6574 0H104V39H97V13.3421L87 32.8421Z" fill="#3D4637"/>
</svg>
