<svg width="31" height="27" viewBox="0 0 31 27" fill="none" xmlns="http://www.w3.org/2000/svg">
<path d="M12.5346 9.17889C12.2668 8.94031 11.8327 8.94043 11.5649 9.17889L7.20084 13.0679C6.93305 13.3066 6.93305 13.6934 7.20084 13.9321L11.5649 17.8211C11.8327 18.0596 12.2668 18.0597 12.5346 17.8211C12.8023 17.5825 12.8021 17.1957 12.5346 16.957L9.34102 14.1111L30.3143 14.1111C30.693 14.1111 31 13.8375 31 13.5C31 13.1625 30.693 12.8889 30.3143 12.8889L9.34102 12.8889L12.5346 10.043C12.8021 9.80434 12.8023 9.41747 12.5346 9.17889Z" fill="black"/>
<path d="M12.5597 0C5.26455 0 0 5.54595 0 13.5C0 21.4541 5.26455 27 12.5597 27C19.2183 27 24.1839 22.3796 25 15.525H20.161C19.4904 20.0505 16.5446 22.8768 12.5597 22.8768C8.00964 22.8768 4.81318 19.1919 4.81318 13.5C4.81318 7.80811 8.00964 4.12317 12.5597 4.12317C16.5446 4.12317 19.4904 6.94951 20.161 11.475H25C24.1839 4.62044 19.2183 0 12.5597 0Z" fill="#3D4637"/>
</svg>
