<svg width="24" height="21" viewBox="0 0 24 21" fill="none" xmlns="http://www.w3.org/2000/svg">
<path d="M23.7851 3.45346C23.559 3.13165 23.2028 2.94825 22.8056 2.94825H3.5902L3.21408 1.1823C3.06644 0.486749 2.45832 0 1.73535 0H0.480422C0.215611 0 0 0.211082 0 0.47293C0 0.733611 0.214426 0.94586 0.480422 0.94586H1.73535C2.0025 0.94586 2.21928 1.11888 2.27435 1.37724L2.72898 3.51461C2.72898 3.51692 2.73015 3.51807 2.73015 3.51922L4.80296 13.2672C3.85972 13.5175 3.16372 14.3653 3.16372 15.3723C3.16372 16.5742 4.15735 17.5523 5.37829 17.5523H5.46969C5.21893 17.9076 5.0713 18.339 5.0713 18.8038C5.0713 20.015 6.07195 21 7.30228 21C8.53261 21 9.53326 20.015 9.53326 18.8038C9.53326 18.339 9.38562 17.9076 9.13488 17.5523H13.8968C13.6461 17.9076 13.4984 18.339 13.4984 18.8038C13.4984 20.015 14.4991 21 15.7294 21C16.9597 21 17.9604 20.015 17.9604 18.8038C17.9604 18.339 17.8127 17.9076 17.562 17.5523H18.4279C18.6927 17.5523 18.9083 17.3412 18.9083 17.0794C18.9083 16.8187 18.6939 16.6064 18.4279 16.6064L5.37949 16.6053C4.68816 16.6053 4.12573 16.0516 4.12573 15.3711C4.12573 14.6905 4.68699 14.1369 5.37832 14.1369H5.37949H5.38183H19.3055C19.882 14.1369 20.3847 13.7943 20.5874 13.2637L23.9221 4.53536C24.0615 4.16971 24.0123 3.77639 23.7862 3.45456L23.7851 3.45346ZM8.57368 18.8015C8.57368 19.4913 8.00306 20.053 7.30234 20.053C6.60166 20.053 6.03101 19.4913 6.03101 18.8015C6.03101 18.1118 6.60163 17.55 7.30234 17.55C8.00303 17.55 8.57368 18.1117 8.57368 18.8015ZM16.9997 18.8015C16.9997 19.4913 16.429 20.053 15.7283 20.053C15.0276 20.053 14.457 19.4913 14.457 18.8015C14.457 18.1118 15.0276 17.55 15.7283 17.55C16.429 17.55 16.9997 18.1117 16.9997 18.8015ZM16.8883 7.31196H21.8341L20.8921 9.77922H16.6329L16.8883 7.31196ZM5.76989 13.1911L5.24496 10.7238H9.90969L10.1651 13.1911H5.76989ZM9.8125 9.77907H5.04458L4.51964 7.31181H9.55693L9.8125 9.77907ZM10.5226 7.31181H15.9243L15.6689 9.77907H10.7768L10.5213 7.31181H10.5226ZM10.8753 10.7238H15.5715L15.3161 13.1911H11.1307L10.8753 10.7238ZM10.4242 6.36601L10.1687 3.89299H16.2769L16.0214 6.36601H10.4242ZM9.20322 3.89299L9.45865 6.36601H4.31818L3.79207 3.89299H9.20322ZM19.6878 12.9293C19.6257 13.0931 19.4816 13.19 19.3047 13.19H16.2793L16.5347 10.7227H20.5302L19.6878 12.9293ZM23.0225 4.20097L22.1953 6.36601H16.9858L17.2413 3.89299H22.8059C22.8891 3.89299 22.9488 3.92413 22.9969 3.99103C23.0438 4.05793 23.052 4.12483 23.0238 4.20096L23.0225 4.20097Z" fill="#3D4637"/>
</svg>
