<svg width="21" height="21" viewBox="0 0 21 21" fill="none" xmlns="http://www.w3.org/2000/svg">
<path d="M20.5332 10.2667C20.5332 4.21766 16.2298 0 10.2665 0C4.30326 0 -0.0001297 4.21766 -0.0001297 10.2667C-0.0001297 16.3157 4.30326 20.5333 10.2665 20.5333C16.2298 20.5333 20.5332 16.3157 20.5332 10.2667ZM3.9344 10.2667C3.9344 5.93802 6.54717 3.13549 10.2665 3.13549C13.9859 3.13549 16.5987 5.93802 16.5987 10.2667C16.5987 14.5953 13.9859 17.3978 10.2665 17.3978C6.54717 17.3978 3.9344 14.5953 3.9344 10.2667Z" fill="#3D4637"/>
<path d="M7.26509 7.09435C7.46035 6.89909 7.77693 6.89909 7.97219 7.09435L10.4374 9.55956L12.9116 7.08537C13.1068 6.89037 13.4235 6.89037 13.6187 7.08537C13.8139 7.28057 13.8138 7.5972 13.6187 7.79248L11.1445 10.2667L13.6187 12.7408C13.8136 12.9361 13.8138 13.2528 13.6187 13.448C13.4235 13.6428 13.1068 13.6428 12.9116 13.448L10.4374 10.9738L7.97219 13.439C7.77692 13.6341 7.46031 13.6342 7.26509 13.439C7.07006 13.2437 7.07001 12.9271 7.26509 12.7319L9.73029 10.2667L7.26509 7.80146C7.06992 7.60629 7.0701 7.28963 7.26509 7.09435Z" fill="black"/>
</svg>
