<svg width="384" height="101" viewBox="0 0 384 101" fill="none" xmlns="http://www.w3.org/2000/svg">
<path d="M109.104 38.3542L95.5231 17.2692V49.2728H86.5146V0.819824H94.6345L111.354 27.2293L128.076 0.819824H136.129V49.2694H127.121V17.2659L113.61 38.3509H109.107L109.104 38.3542Z" fill="white"/>
<path d="M179.863 1.91016C182.912 3.18471 185.561 4.94845 187.813 7.19805C190.066 9.45098 191.827 12.0999 193.101 15.1482C194.376 18.1965 195.012 21.4943 195.012 25.0418C195.012 28.5892 194.373 31.8904 193.101 34.9354C191.827 37.9836 190.063 40.6326 187.813 42.8855C185.561 45.1384 182.912 46.9022 179.863 48.1734C176.815 49.4479 173.494 50.0835 169.9 50.0835C166.306 50.0835 162.985 49.4446 159.936 48.1734C156.888 46.8988 154.239 45.1351 151.986 42.8855C149.733 40.6326 147.969 37.9836 146.698 34.9354C145.424 31.8871 144.788 28.5892 144.788 25.0418C144.788 21.4943 145.424 18.1965 146.698 15.1482C147.973 12.0999 149.737 9.45098 151.986 7.19805C154.239 4.94513 156.888 3.18471 159.936 1.91016C162.985 0.635612 166.306 0 169.9 0C173.494 0 176.815 0.63894 179.863 1.91016ZM163.657 9.8603C161.723 10.7022 160.049 11.8503 158.642 13.3079C157.231 14.7655 156.116 16.5059 155.297 18.5292C154.479 20.5526 154.069 22.7256 154.069 25.0451C154.069 27.3646 154.479 29.5376 155.297 31.561C156.116 33.5843 157.231 35.3247 158.642 36.7823C160.053 38.2399 161.723 39.388 163.657 40.2299C165.59 41.0718 167.67 41.4911 169.9 41.4911C172.129 41.4911 174.209 41.0718 176.143 40.2299C178.076 39.388 179.747 38.2399 181.158 36.7823C182.569 35.328 183.684 33.5876 184.502 31.561C185.321 29.5376 185.73 27.3646 185.73 25.0451C185.73 22.7256 185.321 20.5526 184.502 18.5292C183.684 16.5059 182.569 14.7655 181.158 13.3079C179.747 11.8537 178.076 10.7022 176.143 9.8603C174.209 9.01837 172.126 8.59906 169.9 8.59906C167.674 8.59906 165.59 9.02169 163.657 9.8603Z" fill="white"/>
<path d="M196.655 0.819824H206.14L219.241 37.6021L232.276 0.819824H241.761L223.744 49.2694H214.669L196.655 0.819824Z" fill="white"/>
<path d="M257.248 0.819824H266.256L284.885 49.2694H275.741L271.168 37.3958H252.333L247.76 49.2694H238.549L257.248 0.819824ZM268.373 29.4823L261.754 10.8532L255.135 29.4823H268.373Z" fill="white"/>
<path d="M294.242 8.80324H280.389V0.819824H317.171V8.80324H303.251V49.2694H294.242V8.80324Z" fill="white"/>
<path d="M352.855 1.91016C355.904 3.18471 358.553 4.94845 360.806 7.19805C363.059 9.44765 364.819 12.0999 366.094 15.1482C367.368 18.1965 368.004 21.4943 368.004 25.0418C368.004 28.5892 367.365 31.8904 366.094 34.9354C364.819 37.9836 363.055 40.6326 360.806 42.8855C358.553 45.1384 355.904 46.9022 352.855 48.1734C349.807 49.4479 346.486 50.0835 342.892 50.0835C339.298 50.0835 335.977 49.4446 332.929 48.1734C329.88 46.8988 327.231 45.1351 324.978 42.8855C322.725 40.6326 320.962 37.9836 319.69 34.9354C318.416 31.8871 317.78 28.5892 317.78 25.0418C317.78 21.4943 318.416 18.1965 319.69 15.1482C320.965 12.0999 322.729 9.45098 324.978 7.19805C327.231 4.94513 329.88 3.18471 332.929 1.91016C335.977 0.635612 339.298 0 342.892 0C346.486 0 349.807 0.63894 352.855 1.91016ZM336.649 9.8603C334.716 10.7022 333.042 11.8503 331.634 13.3079C330.223 14.7655 329.108 16.5059 328.29 18.5292C327.471 20.5526 327.062 22.7256 327.062 25.0451C327.062 27.3646 327.471 29.5376 328.29 31.561C329.108 33.5843 330.223 35.3247 331.634 36.7823C333.045 38.2399 334.716 39.388 336.649 40.2299C338.582 41.0718 340.662 41.4911 342.892 41.4911C345.122 41.4911 347.202 41.0718 349.135 40.2299C351.068 39.388 352.739 38.2399 354.15 36.7823C355.561 35.328 356.676 33.5876 357.494 31.561C358.313 29.5376 358.722 27.3646 358.722 25.0451C358.722 22.7256 358.313 20.5526 357.494 18.5292C356.676 16.5059 355.561 14.7655 354.15 13.3079C352.739 11.8537 351.068 10.7022 349.135 9.8603C347.202 9.01837 345.118 8.59906 342.892 8.59906C340.666 8.59906 338.582 9.02169 336.649 9.8603Z" fill="white"/>
<path d="M30.5692 37.3255C25.7172 33.3055 20.8686 29.2888 16.0166 25.2688V50.5236C30.0766 50.5236 44.1334 50.5202 58.1934 50.5169C58.1934 36.9494 58.1934 23.3819 58.1901 9.81445C48.982 18.9859 39.7773 28.1573 30.5692 37.3255Z" fill="white"/>
<path d="M30.5727 27.7909C39.7308 18.6461 48.889 9.50127 58.0472 0.356445H46.2401C40.9821 5.77412 35.7208 11.1951 30.4629 16.6128C23.2115 11.2118 15.9636 5.81073 8.71223 0.40969C8.69892 0.423001 8.68561 0.432985 8.66897 0.446296V0.426329H0V50.4666H8.6723V11.6344C15.9735 17.0188 23.2748 22.4065 30.5727 27.7909Z" fill="white"/>
<path d="M2.016 94.5234V71.5474H17.088C22.048 71.5474 24.864 73.7234 24.864 77.6594C24.864 80.4114 23.072 81.9154 21.504 82.5874C23.808 83.3554 25.568 85.3074 25.568 88.0914C25.568 92.1234 22.496 94.5234 17.632 94.5234H2.016ZM6.528 80.8914H16.608C18.976 80.8914 20.416 79.9954 20.416 78.1714C20.416 76.3794 18.976 75.4514 16.608 75.4514H6.528V80.8914ZM6.528 84.6994V90.5874H17.312C19.648 90.5874 21.024 89.4034 21.024 87.6434C21.024 85.9154 19.648 84.6994 17.312 84.6994H6.528ZM39.5978 94.8434C31.5338 94.8434 27.7897 90.3634 27.7897 83.6754V71.5474H32.4938V83.4194C32.4938 87.7394 34.3498 90.7154 39.5978 90.7154C44.8138 90.7154 46.6698 87.7394 46.6698 83.4194V71.5474H51.4058V83.6754C51.4058 90.3634 47.6298 94.8434 39.5978 94.8434ZM59.8287 71.5474V94.5234H55.1247V71.5474H59.8287ZM64.1635 94.5234V71.5474H68.8675V90.4594H85.0275V94.5234H64.1635ZM105.692 75.6114H95.5485V94.5234H90.8125V75.6114H80.6685V71.5474H105.692V75.6114ZM141.082 75.6114H130.938V94.5234H126.202V75.6114H116.058V71.5474H141.082V75.6114ZM154.232 71.1954C162.072 71.1954 167.8 76.2194 167.8 83.0354C167.8 89.8514 162.072 94.8754 154.232 94.8754C146.36 94.8754 140.664 89.8514 140.664 83.0354C140.664 76.2194 146.36 71.1954 154.232 71.1954ZM154.232 75.3234C149.08 75.3234 145.496 78.3954 145.496 83.0354C145.496 87.6754 149.08 90.7474 154.232 90.7474C159.384 90.7474 162.968 87.6754 162.968 83.0354C162.968 78.3954 159.384 75.3234 154.232 75.3234ZM184.444 86.0754V94.5234H179.74V71.5474H194.108C199.356 71.5474 202.812 74.0434 202.812 78.8114C202.812 83.5474 199.356 86.0754 194.108 86.0754H184.444ZM184.444 82.0754H193.852C196.572 82.0754 198.172 80.8594 198.172 78.8114C198.172 76.7314 196.572 75.5474 193.852 75.5474H184.444V82.0754ZM205.685 71.5474H227.925V75.6114H210.325V80.7314H226.101V84.7634H210.325V90.4594H227.925V94.5234H205.685V71.5474ZM235.959 85.9794V94.5234H231.255V71.5474H245.687C250.903 71.5474 254.423 74.0434 254.423 78.7794C254.423 82.2994 252.375 84.6354 249.111 85.5314L254.967 94.5234H249.559L244.151 85.9794H235.959ZM235.959 82.0434H245.431C248.183 82.0434 249.751 80.8594 249.751 78.8114C249.751 76.7314 248.183 75.5474 245.431 75.5474H235.959V82.0434ZM262.058 94.5234H257.418V71.5474H279.306V75.6114H262.058V81.3394H277.482V85.4034H262.058V94.5234ZM293.964 71.1954C301.804 71.1954 307.532 76.2194 307.532 83.0354C307.532 89.8514 301.804 94.8754 293.964 94.8754C286.092 94.8754 280.396 89.8514 280.396 83.0354C280.396 76.2194 286.092 71.1954 293.964 71.1954ZM293.964 75.3234C288.812 75.3234 285.228 78.3954 285.228 83.0354C285.228 87.6754 288.812 90.7474 293.964 90.7474C299.116 90.7474 302.7 87.6754 302.7 83.0354C302.7 78.3954 299.116 75.3234 293.964 75.3234ZM315.294 85.9794V94.5234H310.59V71.5474H325.022C330.238 71.5474 333.758 74.0434 333.758 78.7794C333.758 82.2994 331.71 84.6354 328.446 85.5314L334.302 94.5234H328.894L323.486 85.9794H315.294ZM315.294 82.0434H324.766C327.518 82.0434 329.086 80.8594 329.086 78.8114C329.086 76.7314 327.518 75.5474 324.766 75.5474H315.294V82.0434ZM353.489 94.5234H349.681L341.329 76.0274V94.5234H336.753V71.5474H343.921L351.633 88.7634L359.345 71.5474H366.417V94.5234H361.809V76.0274L353.489 94.5234Z" fill="white"/>
</svg>
