<svg width="57" height="60" viewBox="0 0 57 60" fill="none" xmlns="http://www.w3.org/2000/svg">
<path fill-rule="evenodd" clip-rule="evenodd" d="M50.2035 49.3775V52.8098C50.2035 54.291 48.9929 55.4873 47.5259 55.4873H38.0977C38.1974 55.8719 38.2543 56.2706 38.2543 56.6837C38.2543 57.0967 38.1974 57.4955 38.0977 57.88H47.5259C50.3316 57.88 52.5961 55.6013 52.5961 52.8098V49.2065C52.3825 49.235 52.1689 49.2635 51.9552 49.2778L50.2035 49.3775Z" fill="#25282A"/>
<path fill-rule="evenodd" clip-rule="evenodd" d="M8.3174 37.0009C8.3174 36.8585 8.33164 36.7303 8.34588 36.5879L4.20142 36.8443C3.71719 36.8727 3.26144 36.9724 2.84842 37.1149C2.8057 37.1291 2.76297 37.1576 2.72024 37.1576C1.09664 37.7842 0 39.2654 0 41.0029V43.7517C0 45.9734 1.80875 47.768 4.20142 47.9104L8.34588 48.1667C8.33164 48.0386 8.3174 47.8961 8.3174 47.7537V37.0009Z" fill="#25282A"/>
<path fill-rule="evenodd" clip-rule="evenodd" d="M11.3794 35.3062C10.7527 35.3062 10.2115 35.648 9.91244 36.1464C9.8982 36.1607 9.8982 36.1892 9.88396 36.2034C9.75578 36.4455 9.68457 36.7019 9.68457 36.9867V47.7538C9.68457 48.0386 9.75578 48.3092 9.88396 48.5371C9.8982 48.5513 9.91244 48.5798 9.91244 48.594C10.2115 49.0925 10.7527 49.4343 11.3794 49.4343C12.3194 49.4343 13.0742 48.6795 13.0742 47.7395V36.9867C13.0742 36.061 12.3194 35.3062 11.3794 35.3062Z" fill="#25282A"/>
<path fill-rule="evenodd" clip-rule="evenodd" d="M7.17806 35.2919V29.1108H3.21875V35.591C3.50359 35.534 3.80268 35.4913 4.116 35.4771L7.17806 35.2919Z" fill="#25282A"/>
<path fill-rule="evenodd" clip-rule="evenodd" d="M42.7687 10.0977C46.728 14.057 48.8928 19.2838 48.8928 24.824V27.7436H52.8521V24.824C52.8521 18.2157 50.2601 11.9919 45.5602 7.29196C40.8603 2.59206 34.6364 0 28.0281 0C21.4198 0 15.196 2.59206 10.4961 7.29196C5.79617 11.9919 3.2041 18.2157 3.2041 24.824V27.7436H7.16341V24.824C7.16341 19.2838 9.34245 14.0427 13.2875 10.0977C17.2468 6.13835 22.4737 3.97355 28.0139 3.97355C33.5825 3.97355 38.8094 6.15259 42.7687 10.0977Z" fill="#25282A"/>
<path fill-rule="evenodd" clip-rule="evenodd" d="M48.8936 35.2919L51.9556 35.4771C52.2547 35.4913 52.5538 35.534 52.8529 35.591V29.1108H48.8936V35.2919Z" fill="#25282A"/>
<path fill-rule="evenodd" clip-rule="evenodd" d="M53.3649 37.1576C53.3222 37.1433 53.2794 37.1291 53.2367 37.1149C52.8095 36.9582 52.3537 36.8727 51.8837 36.8443L47.7393 36.5879C47.7535 36.7161 47.7677 36.8585 47.7677 37.0009V47.768C47.7677 47.9104 47.7535 48.0386 47.7393 48.181L51.8837 47.9246C54.2764 47.7822 56.0851 45.9877 56.0851 43.7659V41.0172C56.0709 39.2654 54.9743 37.7985 53.3649 37.1576Z" fill="#25282A"/>
<path fill-rule="evenodd" clip-rule="evenodd" d="M46.2015 36.2177C46.1873 36.1892 46.1731 36.1749 46.1588 36.1464C45.8597 35.648 45.3185 35.3062 44.6919 35.3062C43.7519 35.3062 42.9971 36.061 42.9971 37.001V47.7538C42.9971 48.6937 43.7519 49.4486 44.6919 49.4486C45.3185 49.4486 45.8597 49.1068 46.1588 48.6083C46.1731 48.5798 46.1873 48.5513 46.2015 48.5371C46.3297 48.3092 46.3867 48.0386 46.3867 47.7538V36.9867C46.3867 36.7161 46.3155 36.4455 46.2015 36.2177Z" fill="#25282A"/>
<path fill-rule="evenodd" clip-rule="evenodd" d="M33.6683 53.4792H27.4873C25.7212 53.4792 24.2686 54.9177 24.2686 56.698C24.2686 58.464 25.707 59.9167 27.4873 59.9167H33.6683C35.4344 59.9167 36.8871 58.4782 36.8871 56.698C36.8728 54.9177 35.4344 53.4792 33.6683 53.4792Z" fill="#25282A"/>
<path fill-rule="evenodd" clip-rule="evenodd" d="M39.5505 20.3234L29.9228 14.8687C29.3104 14.5269 28.6837 14.356 28.0428 14.356C27.402 14.356 26.7753 14.5269 26.1629 14.8687L16.521 20.3234C14.8404 21.2776 14.1425 23.3285 14.8831 25.1088L16.8201 29.7517C16.8485 29.8229 16.8628 29.8941 16.877 29.9796L17.29 37.1433L21.3063 35.121C21.406 35.0782 21.5057 35.0498 21.6197 35.0498H34.523C36.0896 35.0498 37.4426 34.1525 38.0408 32.6998L41.2026 25.1088C41.9289 23.3285 41.231 21.2634 39.5505 20.3234ZM28.0428 16.7914C29.5098 16.7914 30.6919 17.9735 30.6919 19.4404C30.6919 20.6652 29.8516 21.7049 28.7265 22.004V23.3997C28.7265 23.7842 28.4131 24.0833 28.0428 24.0833C27.6726 24.0833 27.3592 23.77 27.3592 23.3997V21.4058C27.3592 21.0355 27.6583 20.7222 28.0428 20.7222C28.755 20.7222 29.3246 20.1383 29.3246 19.4404C29.3246 18.7283 28.7407 18.1586 28.0428 18.1586C27.3307 18.1586 26.7611 18.7425 26.7611 19.4404C26.7611 19.8107 26.462 20.124 26.0774 20.124C25.7071 20.124 25.3938 19.8107 25.3938 19.4404C25.3796 17.9877 26.5759 16.7914 28.0428 16.7914ZM28.7265 25.9633C28.7265 26.3478 28.4131 26.6469 28.0428 26.6469C27.6726 26.6469 27.3592 26.3478 27.3592 25.9633V25.4933C27.3592 25.1088 27.6583 24.8097 28.0428 24.8097C28.4274 24.8097 28.7265 25.123 28.7265 25.4933V25.9633ZM34.7366 32.6001H21.3348C20.9503 32.6001 20.6512 32.301 20.6512 31.9165C20.6512 31.5319 20.9503 31.2329 21.3348 31.2329H34.7366C35.1069 31.2329 35.4203 31.5462 35.4203 31.9165C35.4203 32.2868 35.1069 32.6001 34.7366 32.6001ZM34.7366 29.2675H21.3348C20.9503 29.2675 20.6512 28.9684 20.6512 28.5838C20.6512 28.2135 20.9503 27.9002 21.3348 27.9002H34.7366C35.1069 27.9002 35.4203 28.2135 35.4203 28.5838C35.4203 28.9541 35.1069 29.2675 34.7366 29.2675Z" fill="#25282A"/>
</svg>
