<svg width="70" height="70" viewBox="0 0 70 70" fill="none" xmlns="http://www.w3.org/2000/svg">
<path d="M34.5146 41.2278C33.8452 40.7356 33.0118 40.1231 32.8609 39.0206C32.7843 38.4693 32.4562 37.0999 31.0496 36.2621C30.8484 36.1462 30.7959 36.1134 30.1243 36.5728C29.619 36.9184 28.9977 37.3231 28.149 37.3165C26.6724 37.2487 25.7449 36.5903 24.9268 36.0084C24.089 35.4156 23.2971 34.8556 21.7505 34.7549C21.5405 34.7418 21.3524 34.7003 21.1621 34.6609C23.6384 39.8234 28.9015 43.4043 35.0002 43.4043C35.1665 43.4043 35.3262 43.3846 35.4902 43.3803C35.558 42.8399 35.5624 42.3346 35.4793 42.1553C35.3284 41.825 34.9346 41.534 34.5146 41.2278Z" fill="#25282A"/>
<path d="M26.44 49.8203C25.2894 47.5913 22.8963 46.2197 20.4244 46.3466L17.7185 46.4713C17.5041 46.5019 17.3138 46.4275 17.1388 46.3225L11.4229 57.435L18.355 56.3413C18.8254 56.2691 19.2913 56.5053 19.5035 56.9341L22.6469 63.21L28.085 52.6356C27.921 52.5328 27.7744 52.4038 27.6825 52.2266L26.44 49.8203Z" fill="#25282A"/>
<path d="M34.829 18.4646C34.21 18.5018 33.6762 18.5302 33.3197 18.7577C32.7706 19.1077 32.3922 19.9871 32.0247 20.8358C31.819 21.3149 31.609 21.8027 31.3487 22.2468C31.8168 22.4283 32.2718 22.7674 32.3397 23.4521C32.3965 24.023 32.0968 24.4846 31.7184 25.0687C31.4187 25.5302 30.92 26.3002 31.0097 26.694C31.049 26.8624 31.2525 27.0155 31.4165 27.1162C32.2718 27.6346 33.8206 27.593 35.1834 27.5602C37.1215 27.5099 39.1143 27.4574 39.694 29.1265C39.9609 29.8987 40.3153 31.0537 40.6325 32.1212L40.7943 31.7996L40.9715 28.1027C39.8384 27.4596 38.1825 26.3221 37.8981 25.0446C37.7318 24.2921 37.5809 23.1918 38.2197 22.354C38.9131 21.4418 40.0878 21.3805 41.2275 21.3215C42.1003 21.2755 43.0934 21.223 43.9597 20.8205C46.6087 19.589 47.954 21.3083 48.9318 22.564C49.1637 22.8615 49.3956 23.1437 49.6362 23.4127C48.0065 18.283 43.7475 14.3258 38.4515 13.103C39.029 14.2033 39.274 15.4721 38.5587 16.6533C37.5503 18.3093 35.9775 18.399 34.829 18.4646Z" fill="#25282A"/>
<path d="M50.2778 26.5191C48.8166 25.9066 47.9153 24.8194 47.2044 23.905C46.1434 22.5422 45.87 22.3388 44.8813 22.8003C43.6278 23.3844 42.3591 23.45 41.3397 23.5025C40.8519 23.5288 40.1191 23.566 39.9484 23.6885C39.9572 23.6928 39.8872 23.9138 40.0338 24.5678C40.1584 24.9485 41.4031 25.8869 42.5909 26.4885C42.9737 26.6853 43.21 27.0857 43.1881 27.5166L42.9672 32.1322C42.9606 32.2853 42.9212 32.4341 42.8534 32.5697L41.3397 35.5994C41.1538 35.9735 40.7731 36.2032 40.3619 36.2032C40.3269 36.2032 40.2941 36.201 40.2591 36.1988C39.8084 36.155 39.4322 35.8422 39.3097 35.4069C39.2987 35.3675 38.2159 31.5438 37.6275 29.8419C37.3934 29.6932 36.0503 29.726 35.2409 29.7478C33.5741 29.785 31.6841 29.8397 30.2797 28.9822C29.5184 28.5185 29.0481 27.9125 28.8797 27.1797C28.6106 26.0007 29.2341 24.896 29.7394 24.1041C29.2822 23.986 28.7659 23.7475 28.5844 23.1328C28.4225 22.5903 28.6172 22.0588 29.1597 21.5469C29.4637 21.2625 29.7459 20.6063 30.0194 19.9697C30.4919 18.8694 31.03 17.6225 32.15 16.9116C32.9856 16.38 33.9 16.3253 34.7072 16.2816C35.8469 16.216 36.3128 16.135 36.6869 15.516C37.1944 14.6782 36.0328 13.2978 35.44 12.716C35.2934 12.7116 35.1512 12.6941 35.0025 12.6941C26.5369 12.6941 19.6484 19.5825 19.6484 28.0503C19.6484 29.2425 19.7994 30.3997 20.0575 31.5153C20.1253 31.6182 20.7509 32.4975 21.895 32.5697C24.0606 32.7097 25.2441 33.5475 26.1934 34.2235C26.9044 34.7266 27.4162 35.0897 28.2475 35.1291C28.265 35.1707 28.6894 34.9038 28.8884 34.7682C29.5272 34.3307 30.7106 33.5169 32.1697 34.381C33.7359 35.3128 34.7772 36.8922 35.0288 38.7188C35.055 38.9047 35.4575 39.2022 35.8119 39.4625C36.3784 39.8782 37.0828 40.3966 37.47 41.241C37.7237 41.7944 37.7588 42.5075 37.7172 43.1463C44.89 41.8578 50.3566 35.5863 50.3566 28.0482C50.3544 27.5341 50.3259 27.0222 50.2778 26.5191Z" fill="#25282A"/>
<path d="M52.2816 46.4713L49.5779 46.3466C47.0579 46.2438 44.7107 47.5934 43.56 49.8203L42.3175 52.2266C42.2257 52.4016 42.0813 52.5328 41.915 52.6356L47.3532 63.21L50.4966 56.9341C50.711 56.5075 51.1725 56.2669 51.645 56.3413L58.5772 57.435L52.8591 46.3203C52.6797 46.4275 52.485 46.5041 52.2816 46.4713Z" fill="#25282A"/>
<path d="M49.6783 44.1633L51.1833 44.2312L51.1133 42.7262C50.958 39.3705 52.7846 36.2074 55.7661 34.6608L57.1049 33.9696L56.2911 32.7008C54.4777 29.8746 54.4777 26.2193 56.2911 23.393L57.1049 22.1243L55.7661 21.433C52.7824 19.8887 50.9558 16.7255 51.1111 13.3699L51.1811 11.8649L49.6761 11.9327C46.3161 12.0858 43.1574 10.2637 41.613 7.27991L40.9218 5.94116L39.653 6.75491C36.8268 8.56616 33.1714 8.56616 30.3452 6.75491L29.0764 5.94116L28.3852 7.27991C26.843 10.2615 23.7018 12.0968 20.3221 11.9327L18.8171 11.8671L18.8871 13.3721C19.0424 16.7255 17.2158 19.8887 14.2343 21.4352L12.8955 22.1265L13.7093 23.3952C15.5227 26.2215 15.5227 29.8768 13.7093 32.703L12.8955 33.9718L14.2343 34.663C17.218 36.2074 19.0446 39.3705 18.8893 42.7284L18.8193 44.2334L20.3243 44.1655C23.6864 44.0059 26.843 45.8346 28.3874 48.8183L29.0786 50.1571L30.3474 49.3433C31.7605 48.4377 33.3814 47.9849 35.0024 47.9849C36.6233 47.9849 38.2421 48.4377 39.6552 49.3433L40.9239 50.1571L41.6152 48.8183C43.1574 45.8346 46.3118 43.9971 49.6783 44.1633ZM35.0002 45.5918C25.3271 45.5918 17.4586 37.7234 17.4586 28.0502C17.4586 18.3771 25.3271 10.5065 35.0002 10.5065C44.6733 10.5065 52.5418 18.3771 52.5418 28.0502C52.5418 37.7234 44.6733 45.5918 35.0002 45.5918Z" fill="#25282A"/>
</svg>
