<svg width="70" height="70" viewBox="0 0 70 70" fill="none" xmlns="http://www.w3.org/2000/svg">
<mask id="mask0_188_212" style="mask-type:luminance" maskUnits="userSpaceOnUse" x="0" y="0" width="70" height="70">
<path d="M0 0H70V70H0V0Z" fill="white"/>
</mask>
<g mask="url(#mask0_188_212)">
<path d="M38.1551 5.12695C38.1551 2.29552 35.8598 1.62125e-05 33.0282 -7.62939e-06H23.4824C20.651 -7.62939e-06 18.3555 2.29549 18.3555 5.12695V8.38086C18.3555 8.94717 18.8146 9.40625 19.3809 9.40625H23.6793C24.2456 9.40625 24.7047 8.94717 24.7047 8.38086V6.16656H31.8058V8.38086C31.8058 8.94715 32.2649 9.40622 32.8312 9.40625H37.1297C37.696 9.40623 38.1551 8.94715 38.1551 8.38086V5.12695ZM33.8566 5.82479C33.8566 4.88087 33.0916 4.11578 32.1477 4.11577H24.3629C23.4193 4.11577 22.6539 4.88073 22.6539 5.82479V7.35547H20.4063V5.12695C20.4063 3.4281 21.7836 2.05077 23.4824 2.05077H33.0282C34.7271 2.0508 36.1043 3.42809 36.1043 5.12695V7.35547H33.8566V5.82479Z" fill="#25282A"/>
<path d="M50.9426 29.9195V63.5059C50.9426 65.9598 48.9531 67.9492 46.4992 67.9492H10.0117C7.55765 67.9492 5.56838 65.9598 5.56836 63.5059V36.8102C5.56836 36.2439 5.10928 35.7848 4.54297 35.7848C3.97666 35.7848 3.51758 36.2439 3.51758 36.8102V63.5059C3.5176 67.0924 6.425 70 10.0117 70H46.4992C50.0857 70 52.9934 67.0924 52.9934 63.5059V29.9195C52.9934 29.3532 52.5343 28.8942 51.968 28.8941C51.4017 28.8941 50.9426 29.3532 50.9426 29.9195Z" fill="#25282A"/>
<path d="M3.51758 20.484V31.8225C3.51758 32.3888 3.97666 32.8479 4.54297 32.8479C5.10928 32.8479 5.56836 32.3888 5.56836 31.8225V20.484C5.56836 18.0301 7.55763 16.0406 10.0117 16.0406H41.4311C41.9974 16.0406 42.4565 15.5815 42.4565 15.0152C42.4565 14.4489 41.9974 13.9898 41.4311 13.9898H10.0117C6.42499 13.9898 3.51758 16.8975 3.51758 20.484Z" fill="#25282A"/>
<path d="M18.4196 55.9887C18.4196 56.6094 17.9166 57.1125 17.2957 57.1125C16.675 57.1125 16.1719 56.6094 16.1719 55.9887V26.9074C16.1719 26.2867 16.675 25.7836 17.2957 25.7836C17.9166 25.7836 18.4196 26.2868 18.4196 26.9074V55.9887ZM20.4704 26.9074C20.4704 25.1541 19.0491 23.7328 17.2957 23.7328C15.5424 23.7328 14.1211 25.1541 14.1211 26.9074V55.9887C14.1211 57.742 15.5424 59.1633 17.2957 59.1633C19.0491 59.1633 20.4704 57.7421 20.4704 55.9887V26.9074Z" fill="#25282A"/>
<path d="M29.3795 55.9887C29.3795 56.6094 28.8763 57.1125 28.2557 57.1125C27.635 57.1125 27.1318 56.6094 27.1318 55.9887V26.9074C27.1319 26.2867 27.635 25.7836 28.2557 25.7836C28.8763 25.7836 29.3795 26.2867 29.3795 26.9074V55.9887ZM31.4303 26.9074C31.4303 25.1541 30.009 23.7328 28.2557 23.7328C26.5024 23.7328 25.0811 25.1541 25.0811 26.9074V55.9887C25.0811 57.742 26.5024 59.1633 28.2557 59.1633C30.009 59.1633 31.4303 57.742 31.4303 55.9887V26.9074Z" fill="#25282A"/>
<path d="M40.3385 55.9887C40.3385 56.6094 39.8353 57.1125 39.2146 57.1125C38.594 57.1125 38.0908 56.6094 38.0908 55.9887V26.9074C38.0908 26.2867 38.594 25.7836 39.2146 25.7836C39.8353 25.7836 40.3385 26.2867 40.3385 26.9074V55.9887ZM42.3893 26.9074C42.3892 25.1541 40.9679 23.7328 39.2146 23.7328C37.4614 23.7328 36.0401 25.1541 36.04 26.9074V55.9887C36.04 57.742 37.4613 59.1633 39.2146 59.1633C40.9679 59.1633 42.3892 57.742 42.3893 55.9887V26.9074Z" fill="#25282A"/>
<path d="M64.4313 13.0716C64.4313 19.1583 59.4973 24.0925 53.4106 24.0925C47.3239 24.0925 42.3896 19.1583 42.3896 13.0716C42.3897 6.9849 47.3239 2.05074 53.4106 2.05074C54.4732 2.05074 55.4989 2.20074 56.4685 2.48022C57.0127 2.63705 57.5809 2.32311 57.7378 1.77897C57.8946 1.23481 57.5807 0.666491 57.0365 0.509645C55.884 0.177454 54.6672 -4.19617e-05 53.4106 -4.57764e-05C46.1913 -4.57764e-05 40.3389 5.85229 40.3389 13.0716C40.3389 20.2909 46.1913 26.1433 53.4106 26.1433C60.6299 26.1433 66.4821 20.2909 66.4821 13.0716C66.4821 9.01044 64.6289 5.38125 61.7258 2.9853C61.289 2.62484 60.6427 2.68672 60.2822 3.12349C59.9218 3.56026 59.9837 4.20649 60.4204 4.56695C62.8717 6.59001 64.4313 9.64824 64.4313 13.0716Z" fill="#25282A"/>
<path d="M54.2632 21.6616C54.8491 21.6616 55.3746 21.3097 55.6002 20.7743L55.6212 20.7219L55.6213 20.7215L56.0772 19.5099L57.2556 20.0439C57.8067 20.2943 58.4543 20.1757 58.8813 19.7487L60.0871 18.5428L60.1263 18.5021C60.5218 18.0752 60.6247 17.4509 60.3832 16.9177L60.3831 16.9175L59.8487 15.7385L61.0603 15.2826L61.0607 15.2824C61.6254 15.0696 62.0004 14.5293 62.0004 13.9244V12.2186C62.0004 11.6138 61.6254 11.0734 61.0607 10.8607L61.0602 10.8605L59.8487 10.4048L60.3831 9.22555L60.3832 9.22535C60.6327 8.67472 60.5145 8.0277 60.0875 7.60065L58.8813 6.39431C58.4543 5.96735 57.8067 5.84879 57.2556 6.09911L56.0772 6.63324L55.6213 5.42159V5.42139C55.4086 4.85651 54.8682 4.48143 54.2632 4.48142H52.5574C51.9529 4.48142 51.4117 4.85628 51.1992 5.4221L50.7433 6.63324L49.565 6.09921C49.0139 5.84889 48.3663 5.96733 47.9393 6.39431L46.7331 7.60065L46.7327 7.60095C46.3062 8.02793 46.1881 8.67477 46.4375 9.22535V9.22555L46.9718 10.4048L45.7604 10.8605L45.76 10.8607C45.1953 11.0734 44.8203 11.6138 44.8203 12.2186V13.9244C44.8203 14.5293 45.1953 15.0696 45.76 15.2824L45.7603 15.2825L46.9718 15.7385L46.4375 16.9175V16.9177C46.1882 17.468 46.3059 18.1152 46.7331 18.5424L47.9393 19.7487C48.3661 20.1755 49.0133 20.2941 49.5642 20.0443L50.7434 19.51L51.1994 20.7215C51.4121 21.287 51.9531 21.6616 52.5574 21.6616H54.2632ZM52.5831 18.5757L52.5829 18.5752C52.4062 18.1062 52.0434 17.7305 51.5799 17.5379L51.5624 17.5305C51.5606 17.5298 51.5589 17.529 51.5571 17.5283C51.086 17.3342 50.5557 17.3435 50.0918 17.5537L49.0959 18.0051L48.4768 17.3859L48.9282 16.3901L48.9283 16.3898C49.1371 15.9287 49.1477 15.4012 48.956 14.9313L48.9561 14.9312L48.9535 14.9247C48.9526 14.9224 48.9517 14.9201 48.9507 14.9178C48.7557 14.4454 48.3734 14.0746 47.8947 13.8945L46.8711 13.5095V12.6338L47.8947 12.2487C48.3585 12.0741 48.7319 11.7206 48.932 11.269L48.9508 11.2251L48.9535 11.2184L48.9561 11.2118C49.1479 10.7418 49.137 10.2145 48.9284 9.75347L48.9282 9.75297L48.4768 8.75722L49.0959 8.13808L50.0918 8.58939L50.0923 8.58959C50.5516 8.79749 51.0761 8.8086 51.5438 8.62003L51.5504 8.61743L51.5637 8.61212C52.0368 8.41714 52.4075 8.03428 52.5874 7.55589L52.9727 6.5322H53.8481L54.2333 7.55589L54.2507 7.60045C54.4365 8.05804 54.7987 8.42323 55.2571 8.61212L55.2634 8.61473C55.7197 8.80282 56.2317 8.79989 56.6848 8.60872L56.7285 8.58959L56.729 8.58939L57.7247 8.13808L58.3438 8.75732L57.8925 9.75297C57.6822 10.2169 57.6729 10.7472 57.8671 11.2184L57.8716 11.2292C58.067 11.6995 58.4481 12.0689 58.9258 12.2487L59.9496 12.6338V13.5094L58.9258 13.8946C58.4468 14.0748 58.0649 14.4457 57.87 14.9178L57.8686 14.9211C57.8681 14.9223 57.8676 14.9236 57.8671 14.9248C57.673 15.3958 57.6822 15.9262 57.8926 16.3903L58.3438 17.3858L57.7247 18.0051L56.7175 17.5485L56.7171 17.5483C56.2607 17.3417 55.7387 17.3325 55.275 17.5236L55.2749 17.5237L55.257 17.531C54.7842 17.7259 54.4134 18.1085 54.2333 18.5872L53.8481 19.6108H52.9726L52.5831 18.5757ZM58.1029 7.96665L58.1037 7.96635C58.1029 7.96672 58.1021 7.96708 58.1012 7.96745L58.1029 7.96665ZM54.869 13.0716C54.869 13.8771 54.2159 14.5302 53.4104 14.5302C52.6047 14.5302 51.9516 13.8771 51.9516 13.0716C51.9516 12.2659 52.6047 11.6128 53.4104 11.6128C54.2158 11.6128 54.869 12.2659 54.869 13.0716ZM58.1029 18.1764L58.1012 18.1757C58.102 18.1761 58.1029 18.1763 58.1037 18.1767L58.1029 18.1764ZM56.9198 13.0716C56.9198 11.1333 55.3485 9.56202 53.4104 9.56201C51.4721 9.56201 49.9008 11.1333 49.9008 13.0716C49.9008 15.0098 51.4721 16.581 53.4104 16.581C55.3485 16.581 56.9198 15.0097 56.9198 13.0716Z" fill="#25282A"/>
</g>
</svg>
