<svg width="46" height="44" viewBox="0 0 46 44" fill="none" xmlns="http://www.w3.org/2000/svg">
<rect x="0.25" y="0.25" width="45.5" height="43.5" rx="21.75" fill="#F0F0E6"/>
<rect x="0.25" y="0.25" width="45.5" height="43.5" rx="21.75" stroke="#C2C2C2" stroke-width="0.5"/>
<path fill-rule="evenodd" clip-rule="evenodd" d="M23.0001 12C26.7274 12 28.6068 16.5619 25.9684 19.22C23.3301 21.878 18.8019 19.9845 18.8019 16.2295C18.8019 13.8936 20.6813 12.0002 22.9999 12.0002L23.0001 12ZM23.0001 21.5145C20.9662 21.5145 19.1174 22.0784 17.7715 22.9908C14.7428 25.0435 14.7428 28.4713 17.7715 30.5239C20.6752 32.492 25.3248 32.492 28.2285 30.5239C31.2572 28.4712 31.2572 25.0434 28.2285 22.9908C26.8827 22.0793 25.0332 21.5145 23.0001 21.5145Z" fill="#3D4637"/>
</svg>
