<svg width="24" height="20" viewBox="0 0 24 20" fill="none" xmlns="http://www.w3.org/2000/svg">
<path d="M17.5361 0.5C19.1422 0.500031 20.6425 1.09321 21.7676 2.16309C24.0603 4.34355 24.0793 7.89913 21.8125 10.0986L12.002 19.4258L2.2373 10.1406H2.23828C1.1136 9.06915 0.5 7.65597 0.5 6.15137C0.500088 4.64678 1.11344 3.23203 2.2373 2.16309C3.36444 1.09122 4.86273 0.50011 6.46875 0.5C8.07483 0.5 9.57507 1.09318 10.7002 2.16309L11.6582 3.07324L12.0029 3.40137L12.3477 3.07324L13.3057 2.16309C14.4329 1.09109 15.9311 0.5 17.5361 0.5ZM6.76074 2.60254C4.58014 2.60254 2.76562 4.29338 2.76562 6.42676C2.76579 7.03117 3.27486 7.48034 3.84766 7.48047C4.42053 7.48047 4.9305 7.03128 4.93066 6.42676C4.93066 5.50484 5.72836 4.71094 6.76074 4.71094C7.33771 4.71082 7.84254 4.25867 7.84277 3.65723C7.84277 3.05266 7.33364 2.60266 6.76074 2.60254Z" stroke="#3D4637"/>
</svg>
